<mxfile host="app.diagrams.net" agent="Mozilla/5.0 (Windows NT 10.0; Win64; x64) AppleWebKit/537.36 (KHTML, like Gecko) Chrome/135.0.0.0 Safari/537.36" version="26.2.13">
  <diagram name="P치gina-1" id="vwkYCabCvB1YeT9cV9RE">
    <mxGraphModel dx="1228" dy="732" grid="1" gridSize="10" guides="1" tooltips="1" connect="1" arrows="1" fold="1" page="1" pageScale="1" pageWidth="3300" pageHeight="4681" math="0" shadow="0">
      <root>
        <mxCell id="0" />
        <mxCell id="1" parent="0" />
        <mxCell id="lxJLPB2ZyF0RdQMdY6AY-4" value="" style="rounded=0;whiteSpace=wrap;html=1;fillColor=none;" parent="1" vertex="1">
          <mxGeometry x="30" y="70" width="270" height="120" as="geometry" />
        </mxCell>
        <mxCell id="lxJLPB2ZyF0RdQMdY6AY-1" value="Cliente" style="shape=umlActor;verticalLabelPosition=bottom;verticalAlign=top;html=1;outlineConnect=0;" parent="1" vertex="1">
          <mxGeometry x="50" y="90" width="30" height="60" as="geometry" />
        </mxCell>
        <mxCell id="lxJLPB2ZyF0RdQMdY6AY-6" value="Cadastro Cliente&lt;div&gt;&amp;lt;CRUD&amp;gt;&lt;/div&gt;" style="ellipse;whiteSpace=wrap;html=1;fillColor=none;" parent="1" vertex="1">
          <mxGeometry x="160" y="90" width="120" height="80" as="geometry" />
        </mxCell>
        <mxCell id="lxJLPB2ZyF0RdQMdY6AY-7" style="edgeStyle=orthogonalEdgeStyle;rounded=0;orthogonalLoop=1;jettySize=auto;html=1;entryX=0;entryY=0.375;entryDx=0;entryDy=0;entryPerimeter=0;" parent="1" source="lxJLPB2ZyF0RdQMdY6AY-1" target="lxJLPB2ZyF0RdQMdY6AY-6" edge="1">
          <mxGeometry relative="1" as="geometry" />
        </mxCell>
        <mxCell id="lxJLPB2ZyF0RdQMdY6AY-8" value="1.1 Cadastro de Cliente" style="text;html=1;align=center;verticalAlign=middle;resizable=0;points=[];autosize=1;strokeColor=none;fillColor=none;" parent="1" vertex="1">
          <mxGeometry x="20" y="48" width="150" height="30" as="geometry" />
        </mxCell>
        <mxCell id="lxJLPB2ZyF0RdQMdY6AY-9" value="" style="rounded=0;whiteSpace=wrap;html=1;fillColor=none;" parent="1" vertex="1">
          <mxGeometry x="400" y="71" width="270" height="120" as="geometry" />
        </mxCell>
        <mxCell id="lxJLPB2ZyF0RdQMdY6AY-10" value="Funcion치rio" style="shape=umlActor;verticalLabelPosition=bottom;verticalAlign=top;html=1;outlineConnect=0;" parent="1" vertex="1">
          <mxGeometry x="420" y="91" width="30" height="60" as="geometry" />
        </mxCell>
        <mxCell id="lxJLPB2ZyF0RdQMdY6AY-11" value="Cadastro Pizza&lt;div&gt;&amp;lt;CRUD&amp;gt;&lt;/div&gt;" style="ellipse;whiteSpace=wrap;html=1;fillColor=none;" parent="1" vertex="1">
          <mxGeometry x="530" y="91" width="120" height="80" as="geometry" />
        </mxCell>
        <mxCell id="lxJLPB2ZyF0RdQMdY6AY-12" style="edgeStyle=orthogonalEdgeStyle;rounded=0;orthogonalLoop=1;jettySize=auto;html=1;entryX=0;entryY=0.375;entryDx=0;entryDy=0;entryPerimeter=0;" parent="1" source="lxJLPB2ZyF0RdQMdY6AY-10" target="lxJLPB2ZyF0RdQMdY6AY-11" edge="1">
          <mxGeometry relative="1" as="geometry" />
        </mxCell>
        <mxCell id="lxJLPB2ZyF0RdQMdY6AY-13" value="1.2 Cadastro de Pizza" style="text;html=1;align=center;verticalAlign=middle;resizable=0;points=[];autosize=1;strokeColor=none;fillColor=none;" parent="1" vertex="1">
          <mxGeometry x="395" y="49" width="140" height="30" as="geometry" />
        </mxCell>
        <mxCell id="lxJLPB2ZyF0RdQMdY6AY-14" value="" style="rounded=0;whiteSpace=wrap;html=1;fillColor=none;" parent="1" vertex="1">
          <mxGeometry x="30" y="242" width="270" height="120" as="geometry" />
        </mxCell>
        <mxCell id="lxJLPB2ZyF0RdQMdY6AY-15" value="Funcion치rio" style="shape=umlActor;verticalLabelPosition=bottom;verticalAlign=top;html=1;outlineConnect=0;" parent="1" vertex="1">
          <mxGeometry x="50" y="262" width="30" height="60" as="geometry" />
        </mxCell>
        <mxCell id="lxJLPB2ZyF0RdQMdY6AY-16" value="Cadastro Bebida&lt;div&gt;&amp;lt;CRUD&amp;gt;&lt;/div&gt;" style="ellipse;whiteSpace=wrap;html=1;fillColor=none;" parent="1" vertex="1">
          <mxGeometry x="160" y="262" width="120" height="80" as="geometry" />
        </mxCell>
        <mxCell id="lxJLPB2ZyF0RdQMdY6AY-17" style="edgeStyle=orthogonalEdgeStyle;rounded=0;orthogonalLoop=1;jettySize=auto;html=1;entryX=0;entryY=0.375;entryDx=0;entryDy=0;entryPerimeter=0;" parent="1" source="lxJLPB2ZyF0RdQMdY6AY-15" target="lxJLPB2ZyF0RdQMdY6AY-16" edge="1">
          <mxGeometry relative="1" as="geometry" />
        </mxCell>
        <mxCell id="lxJLPB2ZyF0RdQMdY6AY-18" value="1.4 Cadastro de Bebida" style="text;html=1;align=center;verticalAlign=middle;resizable=0;points=[];autosize=1;strokeColor=none;fillColor=none;" parent="1" vertex="1">
          <mxGeometry x="20" y="220" width="150" height="30" as="geometry" />
        </mxCell>
        <mxCell id="lxJLPB2ZyF0RdQMdY6AY-19" value="" style="rounded=0;whiteSpace=wrap;html=1;fillColor=none;" parent="1" vertex="1">
          <mxGeometry x="400" y="243" width="270" height="120" as="geometry" />
        </mxCell>
        <mxCell id="lxJLPB2ZyF0RdQMdY6AY-20" value="Cliente" style="shape=umlActor;verticalLabelPosition=bottom;verticalAlign=top;html=1;outlineConnect=0;" parent="1" vertex="1">
          <mxGeometry x="420" y="263" width="30" height="60" as="geometry" />
        </mxCell>
        <mxCell id="lxJLPB2ZyF0RdQMdY6AY-21" value="Cadastro Restaurante&lt;div&gt;&amp;lt;CRUD&amp;gt;&lt;/div&gt;" style="ellipse;whiteSpace=wrap;html=1;fillColor=none;" parent="1" vertex="1">
          <mxGeometry x="530" y="263" width="130" height="80" as="geometry" />
        </mxCell>
        <mxCell id="lxJLPB2ZyF0RdQMdY6AY-22" style="edgeStyle=orthogonalEdgeStyle;rounded=0;orthogonalLoop=1;jettySize=auto;html=1;entryX=0;entryY=0.375;entryDx=0;entryDy=0;entryPerimeter=0;" parent="1" source="lxJLPB2ZyF0RdQMdY6AY-20" target="lxJLPB2ZyF0RdQMdY6AY-21" edge="1">
          <mxGeometry relative="1" as="geometry" />
        </mxCell>
        <mxCell id="lxJLPB2ZyF0RdQMdY6AY-23" value="1.5 Cadastro de Restaurante(Restaurante com mais de uma unidade)" style="text;html=1;align=center;verticalAlign=middle;resizable=0;points=[];autosize=1;strokeColor=none;fillColor=none;" parent="1" vertex="1">
          <mxGeometry x="380" y="220" width="400" height="30" as="geometry" />
        </mxCell>
        <mxCell id="lxJLPB2ZyF0RdQMdY6AY-24" value="" style="rounded=0;whiteSpace=wrap;html=1;fillColor=none;" parent="1" vertex="1">
          <mxGeometry x="30" y="412" width="540" height="278" as="geometry" />
        </mxCell>
        <mxCell id="lxJLPB2ZyF0RdQMdY6AY-25" value="Cliente" style="shape=umlActor;verticalLabelPosition=bottom;verticalAlign=top;html=1;outlineConnect=0;" parent="1" vertex="1">
          <mxGeometry x="50" y="525" width="30" height="60" as="geometry" />
        </mxCell>
        <mxCell id="lxJLPB2ZyF0RdQMdY6AY-30" style="edgeStyle=orthogonalEdgeStyle;rounded=0;orthogonalLoop=1;jettySize=auto;html=1;exitX=1;exitY=0;exitDx=0;exitDy=0;entryX=0;entryY=0.5;entryDx=0;entryDy=0;dashed=1;" parent="1" source="lxJLPB2ZyF0RdQMdY6AY-26" target="lxJLPB2ZyF0RdQMdY6AY-29" edge="1">
          <mxGeometry relative="1" as="geometry" />
        </mxCell>
        <mxCell id="lxJLPB2ZyF0RdQMdY6AY-26" value="Cadastro Pedido&lt;div&gt;&amp;lt;CRUD&amp;gt;&lt;/div&gt;" style="ellipse;whiteSpace=wrap;html=1;fillColor=none;" parent="1" vertex="1">
          <mxGeometry x="130" y="525" width="120" height="80" as="geometry" />
        </mxCell>
        <mxCell id="lxJLPB2ZyF0RdQMdY6AY-27" style="edgeStyle=orthogonalEdgeStyle;rounded=0;orthogonalLoop=1;jettySize=auto;html=1;entryX=0;entryY=0.375;entryDx=0;entryDy=0;entryPerimeter=0;" parent="1" source="lxJLPB2ZyF0RdQMdY6AY-25" target="lxJLPB2ZyF0RdQMdY6AY-26" edge="1">
          <mxGeometry relative="1" as="geometry" />
        </mxCell>
        <mxCell id="lxJLPB2ZyF0RdQMdY6AY-28" value="1.6 Cadastro de Pedido" style="text;html=1;align=center;verticalAlign=middle;resizable=0;points=[];autosize=1;strokeColor=none;fillColor=none;" parent="1" vertex="1">
          <mxGeometry x="20" y="390" width="150" height="30" as="geometry" />
        </mxCell>
        <mxCell id="lxJLPB2ZyF0RdQMdY6AY-29" value="Consulta Pizza" style="ellipse;whiteSpace=wrap;html=1;fillColor=none;" parent="1" vertex="1">
          <mxGeometry x="320" y="420" width="120" height="80" as="geometry" />
        </mxCell>
        <mxCell id="lxJLPB2ZyF0RdQMdY6AY-31" value="&amp;lt;i&amp;gt;" style="text;html=1;align=center;verticalAlign=middle;whiteSpace=wrap;rounded=0;" parent="1" vertex="1">
          <mxGeometry x="240" y="470" width="60" height="30" as="geometry" />
        </mxCell>
        <mxCell id="lxJLPB2ZyF0RdQMdY6AY-32" value="Consulta Bebida" style="ellipse;whiteSpace=wrap;html=1;fillColor=none;" parent="1" vertex="1">
          <mxGeometry x="320" y="600" width="120" height="80" as="geometry" />
        </mxCell>
        <mxCell id="lxJLPB2ZyF0RdQMdY6AY-33" style="edgeStyle=orthogonalEdgeStyle;rounded=0;orthogonalLoop=1;jettySize=auto;html=1;exitX=1;exitY=0.5;exitDx=0;exitDy=0;entryX=0.058;entryY=0.638;entryDx=0;entryDy=0;entryPerimeter=0;dashed=1;" parent="1" source="lxJLPB2ZyF0RdQMdY6AY-26" target="lxJLPB2ZyF0RdQMdY6AY-32" edge="1">
          <mxGeometry relative="1" as="geometry" />
        </mxCell>
        <mxCell id="lxJLPB2ZyF0RdQMdY6AY-34" value="&amp;lt;i&amp;gt;" style="text;html=1;align=center;verticalAlign=middle;whiteSpace=wrap;rounded=0;" parent="1" vertex="1">
          <mxGeometry x="240" y="620" width="60" height="30" as="geometry" />
        </mxCell>
        <mxCell id="lxJLPB2ZyF0RdQMdY6AY-40" value="" style="rounded=0;whiteSpace=wrap;html=1;fillColor=none;" parent="1" vertex="1">
          <mxGeometry x="715" y="72" width="270" height="120" as="geometry" />
        </mxCell>
        <mxCell id="lxJLPB2ZyF0RdQMdY6AY-41" value="Funcion치rio" style="shape=umlActor;verticalLabelPosition=bottom;verticalAlign=top;html=1;outlineConnect=0;" parent="1" vertex="1">
          <mxGeometry x="735" y="92" width="30" height="60" as="geometry" />
        </mxCell>
        <mxCell id="lxJLPB2ZyF0RdQMdY6AY-42" value="Cadastro Pizza&lt;div&gt;&amp;lt;CRUD&amp;gt;&lt;/div&gt;" style="ellipse;whiteSpace=wrap;html=1;fillColor=none;" parent="1" vertex="1">
          <mxGeometry x="845" y="92" width="120" height="80" as="geometry" />
        </mxCell>
        <mxCell id="lxJLPB2ZyF0RdQMdY6AY-43" style="edgeStyle=orthogonalEdgeStyle;rounded=0;orthogonalLoop=1;jettySize=auto;html=1;entryX=0;entryY=0.375;entryDx=0;entryDy=0;entryPerimeter=0;" parent="1" source="lxJLPB2ZyF0RdQMdY6AY-41" target="lxJLPB2ZyF0RdQMdY6AY-42" edge="1">
          <mxGeometry relative="1" as="geometry" />
        </mxCell>
        <mxCell id="lxJLPB2ZyF0RdQMdY6AY-44" value="1.3 Cadastro de Adicionais(Pizza)" style="text;html=1;align=center;verticalAlign=middle;resizable=0;points=[];autosize=1;strokeColor=none;fillColor=none;" parent="1" vertex="1">
          <mxGeometry x="710" y="48" width="200" height="30" as="geometry" />
        </mxCell>
        <mxCell id="lxJLPB2ZyF0RdQMdY6AY-45" value="Consulta Adicionais" style="ellipse;whiteSpace=wrap;html=1;fillColor=none;" parent="1" vertex="1">
          <mxGeometry x="440" y="500" width="120" height="80" as="geometry" />
        </mxCell>
        <mxCell id="lxJLPB2ZyF0RdQMdY6AY-47" style="edgeStyle=orthogonalEdgeStyle;rounded=0;orthogonalLoop=1;jettySize=auto;html=1;exitX=0.983;exitY=0.338;exitDx=0;exitDy=0;entryX=0;entryY=0.6;entryDx=0;entryDy=0;entryPerimeter=0;dashed=1;exitPerimeter=0;" parent="1" source="lxJLPB2ZyF0RdQMdY6AY-26" target="lxJLPB2ZyF0RdQMdY6AY-45" edge="1">
          <mxGeometry relative="1" as="geometry" />
        </mxCell>
        <mxCell id="lxJLPB2ZyF0RdQMdY6AY-48" value="&amp;lt;e&amp;gt;" style="text;html=1;align=center;verticalAlign=middle;whiteSpace=wrap;rounded=0;" parent="1" vertex="1">
          <mxGeometry x="360" y="525" width="60" height="30" as="geometry" />
        </mxCell>
      </root>
    </mxGraphModel>
  </diagram>
</mxfile>
